<svg xmlns="http://www.w3.org/2000/svg" viewBox="0 0 1000 150" fill="none" stroke="currentColor" stroke-width="1.2" stroke-linecap="round" stroke-linejoin="round">
  <!-- Continuous line drawing style Houston skyline -->
  <!-- Single flowing path for organic hand-drawn feel -->
  
  <path d="
    M 0,150
    L 0,150
    
    C 10,150 15,148 20,145
    L 20,125
    C 20,122 22,120 25,120
    L 40,120
    C 43,120 45,122 45,125
    L 45,145
    C 50,148 55,150 60,150
    
    L 60,150
    C 65,150 70,145 75,140
    L 75,100
    C 75,97 78,95 82,95
    L 105,95
    C 108,95 110,97 110,100
    L 110,140
    C 115,145 120,150 130,150
    
    L 130,150
    C 135,148 138,142 140,135
    L 140,45
    C 141,40 145,35 152,30
    L 165,18
    C 170,14 175,14 180,18
    L 193,30
    C 200,35 204,40 205,45
    L 205,135
    C 207,142 210,148 215,150
    
    L 240,150
    C 245,148 248,140 250,130
    L 250,55
    C 251,50 255,48 260,48
    L 295,48
    C 300,48 304,50 305,55
    L 305,130
    C 307,140 310,148 315,150
    
    L 340,150
    C 345,147 348,138 350,125
    L 350,70
    C 351,65 354,62 358,62
    L 395,62
    C 399,62 402,65 403,70
    L 403,78
    C 403,82 405,85 410,85
    L 390,85
    L 390,78
    C 390,75 392,73 395,73
    L 368,73
    C 365,73 363,75 363,78
    L 363,125
    C 365,138 368,147 373,150
    
    L 400,150
    C 405,147 408,135 410,120
    L 410,40
    C 411,35 414,32 418,32
    L 445,32
    C 449,32 452,35 453,40
    L 453,28
    C 454,24 457,22 460,22
    L 465,15
    L 470,22
    C 473,22 476,24 477,28
    L 477,40
    C 478,35 481,32 485,32
    L 512,32
    C 516,32 519,35 520,40
    L 520,120
    C 522,135 525,147 530,150
    
    L 560,150
    C 565,147 568,135 570,115
    L 570,62
    C 571,58 574,55 578,55
    L 605,55
    C 609,55 612,58 613,62
    L 613,115
    C 615,135 618,147 623,150
    
    L 655,150
    C 660,146 663,130 665,108
    L 665,75
    L 665,50
    C 670,45 680,42 698,40
    L 715,55
    L 715,108
    C 717,130 720,146 725,150
    
    L 755,150
    C 760,146 763,125 765,100
    L 765,68
    C 766,63 769,60 773,60
    L 800,60
    C 804,60 807,63 808,68
    L 808,100
    C 810,125 813,146 818,150
    
    L 850,150
    C 855,145 858,130 860,110
    L 860,82
    C 861,78 864,75 868,75
    L 895,75
    C 899,75 902,78 903,82
    L 903,110
    C 905,130 908,145 913,150
    
    L 950,150
    C 958,147 965,138 975,128
    L 975,95
    C 976,92 978,90 982,90
    L 1000,90
    L 1000,150
    
    Z
  " />
  
  <!-- Sam Houston Monument hint (small detail on the left) -->
  <path d="M 85,95 L 85,88 C 88,85 92,85 95,88 L 95,95" stroke-width="0.8" />
  
</svg>
