<?xml version="1.0" standalone="no"?>
<!DOCTYPE svg PUBLIC "-//W3C//DTD SVG 20010904//EN"
 "http://www.w3.org/TR/2001/REC-SVG-20010904/DTD/svg10.dtd">
<svg version="1.0" xmlns="http://www.w3.org/2000/svg"
 width="502.000000pt" height="497.000000pt" viewBox="0 0 502.000000 497.000000"
 preserveAspectRatio="xMidYMid meet">
<g transform="translate(0.000000,497.000000) scale(0.100000,-0.100000)"
fill="#020169" stroke="none">
<path d="M4196 4509 c-88 -12 -302 -60 -456 -104 -235 -67 -609 -213 -929
-361 -74 -34 -78 -35 -240 -40 -108 -4 -197 -12 -256 -25 -116 -25 -294 -83
-370 -122 -85 -42 -268 -164 -344 -227 -117 -99 -255 -279 -359 -470 -31 -56
-59 -90 -106 -130 -36 -30 -159 -149 -273 -265 -215 -217 -329 -356 -528 -650
-102 -149 -143 -223 -198 -356 -93 -221 -122 -382 -85 -469 19 -45 98 -132
155 -172 95 -64 275 -108 453 -108 118 0 357 46 510 97 118 41 352 126 402
148 26 11 24 -6 -29 -218 l-47 -187 -53 0 c-149 0 -187 -89 -81 -191 28 -27
54 -49 59 -49 15 0 10 -32 -26 -159 -20 -68 -33 -132 -29 -143 16 -51 97 -60
128 -13 8 13 22 70 31 127 24 155 19 144 70 151 86 12 145 54 145 102 0 40
-29 78 -86 111 -24 14 -44 29 -44 32 0 15 112 478 119 492 4 8 51 33 104 56
98 42 131 59 252 124 39 21 125 67 192 103 67 36 161 92 210 125 159 106 254
163 270 160 9 -2 33 -52 62 -133 27 -71 63 -164 81 -205 l33 -74 -39 -33 c-22
-18 -42 -33 -45 -33 -12 0 -49 -79 -49 -104 0 -30 39 -75 67 -78 10 -1 51 -2
91 -2 l74 -1 51 -137 c29 -76 59 -144 67 -152 27 -27 66 -30 89 -7 29 29 26
67 -9 145 -16 36 -44 96 -60 133 l-31 67 59 55 c67 64 87 105 78 156 -10 54
-42 69 -124 61 -138 -13 -117 -28 -171 119 -27 72 -63 166 -80 210 -17 44 -31
84 -31 91 0 6 53 46 117 90 65 43 150 103 190 131 111 80 427 350 523 447 47
47 90 84 96 82 6 -2 74 -52 150 -111 76 -59 155 -115 176 -126 20 -10 39 -23
43 -29 3 -5 -1 -31 -10 -57 -29 -83 1 -167 60 -173 46 -5 66 2 114 40 28 22
54 40 58 40 4 0 46 -29 93 -65 46 -36 93 -65 105 -65 34 0 65 28 65 59 0 35
-59 89 -147 135 -18 9 -33 20 -33 25 0 5 15 32 34 60 81 120 44 224 -74 208
-38 -5 -118 -46 -172 -89 l-27 -21 -100 75 c-55 42 -134 98 -176 124 -41 26
-75 53 -75 60 0 7 28 37 61 66 82 71 391 414 530 588 50 63 179 261 244 378
57 101 109 242 121 329 10 82 -17 157 -79 218 -61 58 -150 108 -232 130 -65
16 -215 18 -329 4z m330 -160 c52 -16 79 -32 111 -64 41 -41 43 -45 43 -103 0
-96 -44 -208 -151 -378 -140 -225 -218 -322 -543 -679 -87 -95 -431 -436 -546
-541 -366 -334 -988 -747 -1555 -1032 -271 -136 -519 -235 -789 -313 -202 -58
-284 -70 -476 -72 -163 -1 -228 14 -319 73 -78 49 -121 103 -121 148 0 89 35
208 106 362 114 245 447 693 703 945 92 91 101 83 67 -56 -31 -129 -52 -241
-66 -353 -12 -101 0 -140 48 -150 16 -4 114 10 237 34 216 43 342 83 575 183
157 67 480 252 627 358 33 24 99 71 144 104 123 88 223 177 420 371 258 253
379 415 379 505 0 41 -5 52 -38 85 -56 57 -137 101 -259 143 -60 20 -110 41
-112 46 -6 13 11 21 224 106 192 76 550 200 650 224 87 21 294 63 335 68 111
12 240 6 306 -14z m-1691 -509 c83 -11 179 -30 215 -43 80 -29 196 -85 210
-102 26 -31 -185 -276 -450 -519 -236 -218 -258 -235 -465 -374 -348 -232
-641 -374 -955 -462 -122 -34 -226 -54 -246 -46 -17 7 -14 32 26 227 57 273
142 486 277 689 162 245 247 327 478 459 174 101 283 141 460 171 145 24 268
24 450 0z m-1055 -200 c0 -5 -2 -10 -4 -10 -3 0 -8 5 -11 10 -3 6 -1 10 4 10
6 0 11 -4 11 -10z m2650 -1120 c0 -33 -29 -80 -48 -80 -23 0 -62 28 -62 45 0
17 58 53 88 54 16 1 22 -5 22 -19z m-149 -150 c25 -14 24 -36 -1 -50 -26 -14
-40 -5 -40 24 0 36 10 42 41 26z m-1117 -929 c8 -12 -42 -71 -60 -71 -15 0
-34 30 -34 54 0 22 82 37 94 17z m-186 -83 c20 -20 14 -45 -11 -50 -47 -9 -60
11 -30 44 19 21 25 22 41 6z m-1517 -608 c13 0 11 -37 -3 -46 -12 -8 -38 22
-38 44 0 9 6 12 16 8 9 -3 20 -6 25 -6z m147 -42 c18 -18 14 -38 -7 -38 -23 0
-35 15 -27 35 7 18 18 19 34 3z"/>
</g>
</svg>
